{"accessors" : [{"bufferView" : 0, "byteOffset" : 0, "componentType" : 5123, "count" : 210, "type" : "SCALAR", "max" : [205], "min" : [0]}, {"bufferView" : 1, "byteOffset" : 0, "componentType" : 5126, "count" : 206, "type" : "VEC3", "max" : [0.05429435148835182, 0.05867660045623779, 0.05579610913991928], "min" : [-0.034247759729623795, -0.024246569722890854, -0.0663580372929573], "name" : "POSITION"}, {"bufferView" : 1, "byteOffset" : 12, "componentType" : 5126, "count" : 206, "type" : "VEC3", "max" : [0.8719521760940552, 0.9950118064880371, 0.9871485829353333], "min" : [-0.98260498046875, -0.9997416138648987, -0.8349066376686096], "name" : "NORMAL"}, {"bufferView" : 1, "byteOffset" : 24, "componentType" : 5126, "count" : 206, "type" : "VEC2", "max" : [0.14086860418319702, 1.0948662757873535], "min" : [-0.1360314041376114, 0.8221806883811951], "name" : "TEXCOORD_0"}, {"bufferView" : 0, "byteOffset" : 420, "componentType" : 5123, "count" : 132, "type" : "SCALAR", "max" : [123], "min" : [0]}, {"bufferView" : 2, "byteOffset" : 0, "componentType" : 5126, "count" : 124, "type" : "VEC3", "max" : [0.06459081172943115, -0.021997809410095215, 0.032055679708719254], "min" : [-0.04408574104309082, -0.04446601867675781, -0.07619865238666534], "name" : "POSITION"}, {"bufferView" : 2, "byteOffset" : 12, "componentType" : 5126, "count" : 124, "type" : "VEC3", "max" : [0.9962992072105408, 0.9997416138648987, 0.9965616464614868], "min" : [-0.9962992072105408, -0.9997415542602539, -0.9965617060661316], "name" : "NORMAL"}, {"bufferView" : 2, "byteOffset" : 24, "componentType" : 5126, "count" : 124, "type" : "VEC2", "max" : [0.13467639684677124, 0.9594271183013916], "min" : [-0.1346765011548996, 0.831834077835083], "name" : "TEXCOORD_0"}, {"bufferView" : 0, "byteOffset" : 684, "componentType" : 5123, "count" : 576, "type" : "SCALAR", "max" : [575], "min" : [0]}, {"bufferView" : 3, "byteOffset" : 0, "componentType" : 5126, "count" : 576, "type" : "VEC3", "max" : [-0.02219144068658352, 0.06982886791229248, 0.06095866113901138], "min" : [-0.041976720094680786, 0.0499495305120945, 0.04098055884242058], "name" : "POSITION"}, {"bufferView" : 3, "byteOffset" : 12, "componentType" : 5126, "count" : 576, "type" : "VEC3", "max" : [0.9949566721916199, 0.9803081750869751, 1.0000044107437134], "min" : [-0.9949566721916199, -0.9803080558776855, -0.9668262600898743], "name" : "NORMAL"}, {"bufferView" : 3, "byteOffset" : 24, "componentType" : 5126, "count" : 576, "type" : "VEC2", "max" : [0.14617130160331726, 1.0840767621994019], "min" : [-0.14617130160331726, 0.8264057040214539], "name" : "TEXCOORD_0"}, {"bufferView" : 0, "byteOffset" : 1836, "componentType" : 5123, "count" : 60, "type" : "SCALAR", "max" : [51], "min" : [0]}, {"bufferView" : 4, "byteOffset" : 0, "componentType" : 5126, "count" : 52, "type" : "VEC3", "max" : [0.04640192165970802, -0.04291391000151634, 0.010988559573888779], "min" : [-0.022785600274801254, -0.0448310412466526, -0.058222848922014236], "name" : "POSITION"}, {"bufferView" : 4, "byteOffset" : 12, "componentType" : 5126, "count" : 52, "type" : "VEC3", "max" : [0.026387222111225128, 0.9996185302734375, 0.008682585321366787], "min" : [-0.02638724446296692, -0.9996185302734375, -0.008682575076818466], "name" : "NORMAL"}, {"bufferView" : 4, "byteOffset" : 24, "componentType" : 5126, "count" : 52, "type" : "VEC2", "max" : [0.025699030607938766, 0.9563007354736328], "min" : [-0.025699030607938766, 0.9494301676750183], "name" : "TEXCOORD_0"}], "asset" : {"generator" : "Aspose.3D 22.10", "version" : "2.0"}, "buffers" : [{"uri" : "data:application/octet-stream;base64,", "byteLength" : 33272}], "bufferViews" : [{"buffer" : 0, "byteOffset" : 0, "byteLength" : 1956, "target" : 34963}, {"buffer" : 0, "byteOffset" : 1960, "byteLength" : 6720, "byteStride" : 32, "target" : 34962}, {"buffer" : 0, "byteOffset" : 8684, "byteLength" : 4224, "byteStride" : 32, "target" : 34962}, {"buffer" : 0, "byteOffset" : 12912, "byteLength" : 18432, "byteStride" : 32, "target" : 34962}, {"buffer" : 0, "byteOffset" : 31348, "byteLength" : 1920, "byteStride" : 32, "target" : 34962}], "materials" : [{"name" : "mat8", "pbrMetallicRoughness" : {"baseColorFactor" : [0.91, 0.05, 0.03, 1], "metallicFactor" : 0, "roughnessFactor" : 1}, "emissiveFactor" : [0, 0, 0], "alphaMode" : "OPAQUE", "doubleSided" : false}, {"name" : "mat21", "pbrMetallicRoughness" : {"baseColorFactor" : [1, 1, 1, 1], "metallicFactor" : 0, "roughnessFactor" : 1}, "emissiveFactor" : [0, 0, 0], "alphaMode" : "OPAQUE", "doubleSided" : false}, {"name" : "mat21", "pbrMetallicRoughness" : {"baseColorFactor" : [1, 1, 1, 1], "metallicFactor" : 0, "roughnessFactor" : 1}, "emissiveFactor" : [0, 0, 0], "alphaMode" : "OPAQUE", "doubleSided" : false}, {"name" : "mat23", "pbrMetallicRoughness" : {"baseColorFactor" : [0.01, 0.01, 0.01, 1], "metallicFactor" : 0, "roughnessFactor" : 1}, "emissiveFactor" : [0, 0, 0], "alphaMode" : "OPAQUE", "doubleSided" : false}], "meshes" : [{"primitives" : [{"attributes" : {"POSITION" : 1, "NORMAL" : 2, "TEXCOORD_0" : 3}, "indices" : 0, "material" : 0, "mode" : 4}]}, {"primitives" : [{"attributes" : {"POSITION" : 5, "NORMAL" : 6, "TEXCOORD_0" : 7}, "indices" : 4, "material" : 1, "mode" : 4}]}, {"primitives" : [{"attributes" : {"POSITION" : 9, "NORMAL" : 10, "TEXCOORD_0" : 11}, "indices" : 8, "material" : 2, "mode" : 4}]}, {"primitives" : [{"attributes" : {"POSITION" : 13, "NORMAL" : 14, "TEXCOORD_0" : 15}, "indices" : 12, "material" : 3, "mode" : 4}]}], "nodes" : [{"mesh" : 0, "name" : "group1929500622"}, {"mesh" : 1, "name" : "group1488728730"}, {"mesh" : 2, "name" : "group907954696"}, {"mesh" : 3, "name" : "group2097434644"}], "scene" : 0, "scenes" : [{"nodes" : [0, 1, 2, 3]}]}