{"accessors" : [{"bufferView" : 0, "byteOffset" : 0, "componentType" : 5123, "count" : 1860, "type" : "SCALAR", "max" : [1741], "min" : [0]}, {"bufferView" : 1, "byteOffset" : 0, "componentType" : 5126, "count" : 1742, "type" : "VEC3", "max" : [0.00976486224681139, 0.0030868854373693466, 0.002660572063177824], "min" : [-0.009764865040779114, -0.0036267375107854605, -0.00794146303087473], "name" : "POSITION"}, {"bufferView" : 1, "byteOffset" : 12, "componentType" : 5126, "count" : 1742, "type" : "VEC3", "max" : [0.99996018409729, 1.0000044107437134, 1.0000044107437134], "min" : [-0.99996018409729, -1.0000044107437134, -1.0000044107437134], "name" : "NORMAL"}, {"bufferView" : 1, "byteOffset" : 24, "componentType" : 5126, "count" : 1742, "type" : "VEC2", "max" : [0.4375, 0.3125], "min" : [0.4375, 0.3125], "name" : "TEXCOORD_0"}, {"bufferView" : 0, "byteOffset" : 3720, "componentType" : 5123, "count" : 708, "type" : "SCALAR", "max" : [657], "min" : [0]}, {"bufferView" : 2, "byteOffset" : 0, "componentType" : 5126, "count" : 658, "type" : "VEC3", "max" : [0.009924056939780712, 0.0009243867825716734, -0.007936024107038975], "min" : [-0.009924059733748436, -0.002878296421840787, -0.013536198064684868], "name" : "POSITION"}, {"bufferView" : 2, "byteOffset" : 12, "componentType" : 5126, "count" : 658, "type" : "VEC3", "max" : [0.9997604489326477, 1.0000044107437134, 0.9997276067733765], "min" : [-0.9997604489326477, -1.0000044107437134, -0.9912359118461609], "name" : "NORMAL"}, {"bufferView" : 2, "byteOffset" : 24, "componentType" : 5126, "count" : 658, "type" : "VEC2", "max" : [0.4375, 0.0625], "min" : [0.4375, 0.0625], "name" : "TEXCOORD_0"}], "asset" : {"generator" : "Aspose.3D 22.10", "version" : "2.0"}, "buffers" : [{"uri" : "data:application/octet-stream;base64,", "byteLength" : 87324}], "bufferViews" : [{"buffer" : 0, "byteOffset" : 0, "byteLength" : 5136, "target" : 34963}, {"buffer" : 0, "byteOffset" : 5140, "byteLength" : 59520, "byteStride" : 32, "target" : 34962}, {"buffer" : 0, "byteOffset" : 64664, "byteLength" : 22656, "byteStride" : 32, "target" : 34962}], "materials" : [{"name" : "Base", "pbrMetallicRoughness" : {"baseColorFactor" : [0.0963700637221336, 0.800000071525574, 0.128468915820122, 1], "metallicFactor" : 0.400000005960464, "roughnessFactor" : 0.272165536880493}, "emissiveFactor" : [0, 0, 0], "alphaMode" : "OPAQUE", "doubleSided" : false}, {"name" : "black", "pbrMetallicRoughness" : {"baseColorFactor" : [0, 0, 0, 1], "metallicFactor" : 0.400000005960464, "roughnessFactor" : 1}, "emissiveFactor" : [0, 0, 0], "alphaMode" : "OPAQUE", "doubleSided" : false}], "meshes" : [{"primitives" : [{"attributes" : {"POSITION" : 1, "NORMAL" : 2, "TEXCOORD_0" : 3}, "indices" : 0, "material" : 0, "mode" : 4}, {"attributes" : {"POSITION" : 5, "NORMAL" : 6, "TEXCOORD_0" : 7}, "indices" : 4, "material" : 1, "mode" : 4}]}], "nodes" : [{"matrix" : [100, 0, 0, 0, 0, 99.9999999999999, 4.3711388286738005E-06, 0, 0, -4.3711388286738005E-06, 99.9999999999999, 0, 0, 0, 0, 1], "mesh" : 0, "name" : "glasses22.001"}, {"children" : [0], "name" : "RootNode"}], "scene" : 0, "scenes" : [{"nodes" : [1]}]}