{"accessors" : [{"bufferView" : 0, "byteOffset" : 0, "componentType" : 5123, "count" : 204, "type" : "SCALAR", "max" : [195], "min" : [0]}, {"bufferView" : 1, "byteOffset" : 0, "componentType" : 5126, "count" : 196, "type" : "VEC3", "max" : [0.08500009775161743, 0.17060579359531403, 0.08500006794929504], "min" : [-0.08499997854232788, -0.05939435958862305, -0.08500000834465027], "name" : "POSITION"}, {"bufferView" : 1, "byteOffset" : 12, "componentType" : 5126, "count" : 196, "type" : "VEC3", "max" : [0.965930163860321, 1.0000044107437134, 0.9659300446510315], "min" : [-0.9659302234649658, -1.0000044107437134, -0.965930163860321], "name" : "NORMAL"}, {"bufferView" : 1, "byteOffset" : 24, "componentType" : 5126, "count" : 196, "type" : "VEC2", "max" : [0.12395410239696503, 0.9394465088844299], "min" : [-0.12395410239696503, 0.8309023976325989], "name" : "TEXCOORD_0"}, {"bufferView" : 0, "byteOffset" : 408, "componentType" : 5123, "count" : 132, "type" : "SCALAR", "max" : [123], "min" : [0]}, {"bufferView" : 2, "byteOffset" : 0, "componentType" : 5126, "count" : 124, "type" : "VEC3", "max" : [0.09500002861022949, 0.010605930350720882, 0.0949999988079071], "min" : [-0.09500002861022949, -0.029394149780273438, -0.0949999988079071], "name" : "POSITION"}, {"bufferView" : 2, "byteOffset" : 12, "componentType" : 5126, "count" : 124, "type" : "VEC3", "max" : [0.9659301042556763, 1.0000044107437134, 0.9659300446510315], "min" : [-0.9659300446510315, -1.0000044107437134, -0.9659300446510315], "name" : "NORMAL"}, {"bufferView" : 2, "byteOffset" : 24, "componentType" : 5126, "count" : 124, "type" : "VEC2", "max" : [0.10959780216217041, 0.940430223941803], "min" : [-0.10959780216217041, 0.8466261029243469], "name" : "TEXCOORD_0"}, {"bufferView" : 0, "byteOffset" : 672, "componentType" : 5123, "count" : 132, "type" : "SCALAR", "max" : [123], "min" : [0]}, {"bufferView" : 3, "byteOffset" : 0, "componentType" : 5126, "count" : 124, "type" : "VEC3", "max" : [0.1449999064207077, -0.03303014859557152, 0.1449999064207077], "min" : [-0.14500010013580322, -0.059393998235464096, -0.1449999064207077], "name" : "POSITION"}, {"bufferView" : 3, "byteOffset" : 12, "componentType" : 5126, "count" : 124, "type" : "VEC3", "max" : [0.9659300446510315, 1.0000044107437134, 0.9659300446510315], "min" : [-0.965930163860321, -1.0000044107437134, -0.9659301042556763], "name" : "NORMAL"}, {"bufferView" : 3, "byteOffset" : 24, "componentType" : 5126, "count" : 124, "type" : "VEC2", "max" : [0.10620509833097458, 0.9453489184379578], "min" : [-0.10620509833097458, 0.8507065773010254], "name" : "TEXCOORD_0"}], "asset" : {"generator" : "Aspose.3D 22.10", "version" : "2.0"}, "buffers" : [{"uri" : "data:application/octet-stream;base64,", "byteLength" : 15928}], "bufferViews" : [{"buffer" : 0, "byteOffset" : 0, "byteLength" : 936, "target" : 34963}, {"buffer" : 0, "byteOffset" : 940, "byteLength" : 6528, "byteStride" : 32, "target" : 34962}, {"buffer" : 0, "byteOffset" : 7472, "byteLength" : 4224, "byteStride" : 32, "target" : 34962}, {"buffer" : 0, "byteOffset" : 11700, "byteLength" : 4224, "byteStride" : 32, "target" : 34962}], "materials" : [{"name" : "mat23", "pbrMetallicRoughness" : {"baseColorFactor" : [0.01, 0.01, 0.01, 1], "metallicFactor" : 0, "roughnessFactor" : 1}, "emissiveFactor" : [0, 0, 0], "alphaMode" : "OPAQUE", "doubleSided" : false}, {"name" : "mat21", "pbrMetallicRoughness" : {"baseColorFactor" : [1, 1, 1, 1], "metallicFactor" : 0, "roughnessFactor" : 1}, "emissiveFactor" : [0, 0, 0], "alphaMode" : "OPAQUE", "doubleSided" : false}, {"name" : "mat23", "pbrMetallicRoughness" : {"baseColorFactor" : [0.01, 0.01, 0.01, 1], "metallicFactor" : 0, "roughnessFactor" : 1}, "emissiveFactor" : [0, 0, 0], "alphaMode" : "OPAQUE", "doubleSided" : false}], "meshes" : [{"primitives" : [{"attributes" : {"POSITION" : 1, "NORMAL" : 2, "TEXCOORD_0" : 3}, "indices" : 0, "material" : 0, "mode" : 4}]}, {"primitives" : [{"attributes" : {"POSITION" : 5, "NORMAL" : 6, "TEXCOORD_0" : 7}, "indices" : 4, "material" : 1, "mode" : 4}]}, {"primitives" : [{"attributes" : {"POSITION" : 9, "NORMAL" : 10, "TEXCOORD_0" : 11}, "indices" : 8, "material" : 2, "mode" : 4}]}], "nodes" : [{"mesh" : 0, "name" : "group1121206402"}, {"mesh" : 1, "name" : "group1100532765"}, {"mesh" : 2, "name" : "group1892893370"}], "scene" : 0, "scenes" : [{"nodes" : [0, 1, 2]}]}