{"accessors" : [{"bufferView" : 0, "byteOffset" : 0, "componentType" : 5123, "count" : 14688, "type" : "SCALAR", "max" : [11517], "min" : [0]}, {"bufferView" : 1, "byteOffset" : 0, "componentType" : 5126, "count" : 11518, "type" : "VEC3", "max" : [123.95108032226562, 58.2559814453125, 3.314730167388916], "min" : [-123.95108795166016, -36.335662841796875, -1.2656911611557007], "name" : "POSITION"}, {"bufferView" : 1, "byteOffset" : 12, "componentType" : 5126, "count" : 11518, "type" : "VEC2", "max" : [1, 1], "min" : [0, 0], "name" : "TEXCOORD_0"}, {"bufferView" : 0, "byteOffset" : 29376, "componentType" : 5123, "count" : 1416, "type" : "SCALAR", "max" : [1212], "min" : [0]}, {"bufferView" : 2, "byteOffset" : 0, "componentType" : 5126, "count" : 1213, "type" : "VEC3", "max" : [26.749242782592773, 12.237832069396973, 1.1330902576446533], "min" : [-26.749242782592773, 2.9511587619781494, -9.470468521118164], "name" : "POSITION"}, {"bufferView" : 2, "byteOffset" : 12, "componentType" : 5126, "count" : 1213, "type" : "VEC2", "max" : [1, 1], "min" : [0, 0], "name" : "TEXCOORD_0"}, {"bufferView" : 0, "byteOffset" : 32208, "componentType" : 5123, "count" : 840, "type" : "SCALAR", "max" : [729], "min" : [0]}, {"bufferView" : 3, "byteOffset" : 0, "componentType" : 5126, "count" : 730, "type" : "VEC3", "max" : [129.54078674316406, 17.422382354736328, 1.2595062255859375], "min" : [-129.54078674316406, 12.914387702941895, -13.488168716430664], "name" : "POSITION"}, {"bufferView" : 3, "byteOffset" : 12, "componentType" : 5126, "count" : 730, "type" : "VEC2", "max" : [1, 1], "min" : [0, 0], "name" : "TEXCOORD_0"}, {"bufferView" : 0, "byteOffset" : 33888, "componentType" : 5123, "count" : 1368, "type" : "SCALAR", "max" : [1226], "min" : [0]}, {"bufferView" : 4, "byteOffset" : 0, "componentType" : 5126, "count" : 1227, "type" : "VEC3", "max" : [129.54078674316406, 17.653968811035156, -13.458094596862793], "min" : [-129.54078674316406, 12.945999145507812, -121.30545806884766], "name" : "POSITION"}, {"bufferView" : 4, "byteOffset" : 12, "componentType" : 5126, "count" : 1227, "type" : "VEC2", "max" : [1, 1], "min" : [0, 0], "name" : "TEXCOORD_0"}, {"bufferView" : 0, "byteOffset" : 36624, "componentType" : 5123, "count" : 708, "type" : "SCALAR", "max" : [668], "min" : [0]}, {"bufferView" : 5, "byteOffset" : 0, "componentType" : 5126, "count" : 669, "type" : "VEC3", "max" : [131.24679565429688, 18.10951042175293, -120.56816101074219], "min" : [-131.24679565429688, -25.12001609802246, -227.43507385253906], "name" : "POSITION"}, {"bufferView" : 5, "byteOffset" : 12, "componentType" : 5126, "count" : 669, "type" : "VEC2", "max" : [1, 1], "min" : [0, 0], "name" : "TEXCOORD_0"}, {"bufferView" : 0, "byteOffset" : 38040, "componentType" : 5123, "count" : 504, "type" : "SCALAR", "max" : [420], "min" : [0]}, {"bufferView" : 6, "byteOffset" : 0, "componentType" : 5126, "count" : 421, "type" : "VEC3", "max" : [33.944278717041016, 15.957221984863281, -3.859529495239258], "min" : [-33.944278717041016, -8.147327423095703, -11.96201229095459], "name" : "POSITION"}, {"bufferView" : 0, "byteOffset" : 39048, "componentType" : 5123, "count" : 1128, "type" : "SCALAR", "max" : [992], "min" : [0]}, {"bufferView" : 7, "byteOffset" : 0, "componentType" : 5126, "count" : 993, "type" : "VEC3", "max" : [123.72113037109375, 57.59814453125, 9.138895988464355], "min" : [-123.72113037109375, -35.8780403137207, -1.6786068677902222], "name" : "POSITION"}, {"bufferView" : 7, "byteOffset" : 12, "componentType" : 5126, "count" : 993, "type" : "VEC2", "max" : [1, 1], "min" : [0, 0], "name" : "TEXCOORD_0"}], "asset" : {"generator" : "Aspose.3D 22.10", "version" : "2.0"}, "buffers" : [{"uri" : "data:application/octet-stream;base64,", "byteLength" : 450344}], "bufferViews" : [{"buffer" : 0, "byteOffset" : 0, "byteLength" : 41304, "target" : 34963}, {"buffer" : 0, "byteOffset" : 41308, "byteLength" : 293760, "byteStride" : 20, "target" : 34962}, {"buffer" : 0, "byteOffset" : 335072, "byteLength" : 28320, "byteStride" : 20, "target" : 34962}, {"buffer" : 0, "byteOffset" : 363396, "byteLength" : 16800, "byteStride" : 20, "target" : 34962}, {"buffer" : 0, "byteOffset" : 380200, "byteLength" : 27360, "byteStride" : 20, "target" : 34962}, {"buffer" : 0, "byteOffset" : 407564, "byteLength" : 14160, "byteStride" : 20, "target" : 34962}, {"buffer" : 0, "byteOffset" : 421728, "byteLength" : 6048, "byteStride" : 12, "target" : 34962}, {"buffer" : 0, "byteOffset" : 427780, "byteLength" : 22560, "byteStride" : 20, "target" : 34962}], "materials" : [{"name" : "frame", "pbrMetallicRoughness" : {"baseColorFactor" : [0.80000001192093, 0.80000001192093, 0.80000001192093, 1], "metallicFactor" : 0, "roughnessFactor" : 1}, "emissiveFactor" : [0, 0, 0], "alphaMode" : "OPAQUE", "doubleSided" : false}, {"name" : "frame", "pbrMetallicRoughness" : {"baseColorFactor" : [0.80000001192093, 0.80000001192093, 0.80000001192093, 1], "metallicFactor" : 0, "roughnessFactor" : 1}, "emissiveFactor" : [0, 0, 0], "alphaMode" : "OPAQUE", "doubleSided" : false}, {"name" : "frame", "pbrMetallicRoughness" : {"baseColorFactor" : [0.80000001192093, 0.80000001192093, 0.80000001192093, 1], "metallicFactor" : 0, "roughnessFactor" : 1}, "emissiveFactor" : [0, 0, 0], "alphaMode" : "OPAQUE", "doubleSided" : false}, {"name" : "frame", "pbrMetallicRoughness" : {"baseColorFactor" : [0.80000001192093, 0.80000001192093, 0.80000001192093, 1], "metallicFactor" : 0, "roughnessFactor" : 1}, "emissiveFactor" : [0, 0, 0], "alphaMode" : "OPAQUE", "doubleSided" : false}, {"name" : "arm", "pbrMetallicRoughness" : {"baseColorFactor" : [0, 0, 0, 1], "metallicFactor" : 0, "roughnessFactor" : 0.95}, "emissiveFactor" : [0, 0, 0], "alphaMode" : "OPAQUE", "doubleSided" : false}, {"name" : "nose", "pbrMetallicRoughness" : {"baseColorFactor" : [1, 1, 1, 1], "metallicFactor" : 0, "roughnessFactor" : 1}, "emissiveFactor" : [0, 0, 0], "alphaMode" : "OPAQUE", "doubleSided" : false}, {"name" : "lense", "pbrMetallicRoughness" : {"baseColorFactor" : [1, 1, 1, 0.19999999999999996], "metallicFactor" : 0, "roughnessFactor" : 0.9}, "emissiveFactor" : [0, 0, 0], "alphaMode" : "BLEND", "doubleSided" : true}], "meshes" : [{"primitives" : [{"attributes" : {"POSITION" : 1, "TEXCOORD_0" : 2}, "indices" : 0, "material" : 0, "mode" : 4}]}, {"primitives" : [{"attributes" : {"POSITION" : 4, "TEXCOORD_0" : 5}, "indices" : 3, "material" : 1, "mode" : 4}]}, {"primitives" : [{"attributes" : {"POSITION" : 7, "TEXCOORD_0" : 8}, "indices" : 6, "material" : 2, "mode" : 4}]}, {"primitives" : [{"attributes" : {"POSITION" : 10, "TEXCOORD_0" : 11}, "indices" : 9, "material" : 3, "mode" : 4}]}, {"primitives" : [{"attributes" : {"POSITION" : 13, "TEXCOORD_0" : 14}, "indices" : 12, "material" : 4, "mode" : 4}]}, {"primitives" : [{"attributes" : {"POSITION" : 16}, "indices" : 15, "material" : 5, "mode" : 4}]}, {"primitives" : [{"attributes" : {"POSITION" : 18, "TEXCOORD_0" : 19}, "indices" : 17, "material" : 6, "mode" : 4}]}], "nodes" : [{"mesh" : 0, "name" : "around_lense.2"}, {"mesh" : 1, "name" : "Sweep.1"}, {"mesh" : 2, "name" : "Cube"}, {"mesh" : 3, "name" : "Cube_1"}, {"mesh" : 4, "name" : "Cube_2"}, {"mesh" : 5, "name" : "Polygon"}, {"mesh" : 6, "name" : "Plane"}], "scene" : 0, "scenes" : [{"nodes" : [0, 1, 2, 3, 4, 5, 6]}]}