{"accessors" : [{"bufferView" : 0, "byteOffset" : 0, "componentType" : 5123, "count" : 288, "type" : "SCALAR", "max" : [260], "min" : [0]}, {"bufferView" : 1, "byteOffset" : 0, "componentType" : 5126, "count" : 261, "type" : "VEC3", "max" : [1.0817090272903442, 1.2879270315170288, 1.0810840129852295], "min" : [-1.0817090272903442, 0.9942539930343628, -1.0820410251617432], "name" : "POSITION"}, {"bufferView" : 1, "byteOffset" : 12, "componentType" : 5126, "count" : 261, "type" : "VEC2", "max" : [0.65625, 0.3125], "min" : [0.34375, 0], "name" : "TEXCOORD_0"}, {"bufferView" : 0, "byteOffset" : 576, "componentType" : 5123, "count" : 2016, "type" : "SCALAR", "max" : [1741], "min" : [0]}, {"bufferView" : 2, "byteOffset" : 0, "componentType" : 5126, "count" : 1742, "type" : "VEC3", "max" : [2.5532310009002686, 4.008185863494873, 2.552917003631592], "min" : [-2.5527679920196533, 0.6527199745178223, -2.5777370929718018], "name" : "POSITION"}, {"bufferView" : 2, "byteOffset" : 12, "componentType" : 5126, "count" : 1742, "type" : "VEC2", "max" : [1, 1], "min" : [0, 0], "name" : "TEXCOORD_0"}], "asset" : {"generator" : "Aspose.3D 22.10", "version" : "2.0"}, "buffers" : [{"uri" : "data:application/octet-stream;base64,", "byteLength" : 50700}], "bufferViews" : [{"buffer" : 0, "byteOffset" : 0, "byteLength" : 4608, "target" : 34963}, {"buffer" : 0, "byteOffset" : 4612, "byteLength" : 5760, "byteStride" : 20, "target" : 34962}, {"buffer" : 0, "byteOffset" : 10376, "byteLength" : 40320, "byteStride" : 20, "target" : 34962}], "materials" : [{"name" : "lambert3SG", "pbrMetallicRoughness" : {"baseColorFactor" : [0.01, 0.01, 0.01, 1], "metallicFactor" : 0, "roughnessFactor" : 1}, "emissiveFactor" : [0, 0, 0], "alphaMode" : "OPAQUE", "doubleSided" : false}, {"name" : "lambert2SG", "pbrMetallicRoughness" : {"baseColorFactor" : [0.08, 0.06, 0.07, 1], "metallicFactor" : 0, "roughnessFactor" : 1}, "emissiveFactor" : [0, 0, 0], "alphaMode" : "OPAQUE", "doubleSided" : false}], "meshes" : [{"primitives" : [{"attributes" : {"POSITION" : 1, "TEXCOORD_0" : 2}, "indices" : 0, "material" : 0, "mode" : 4}, {"attributes" : {"POSITION" : 4, "TEXCOORD_0" : 5}, "indices" : 3, "material" : 1, "mode" : 4}]}], "nodes" : [{"mesh" : 0, "name" : "Node"}], "scene" : 0, "scenes" : [{"nodes" : [0]}]}